<?xml version="1.0" standalone="no"?>
<!DOCTYPE svg PUBLIC "-//W3C//DTD SVG 20010904//EN"
 "http://www.w3.org/TR/2001/REC-SVG-20010904/DTD/svg10.dtd">
<svg version="1.0" xmlns="http://www.w3.org/2000/svg"
 width="161.000000pt" height="161.000000pt" viewBox="0 0 161.000000 161.000000"
 preserveAspectRatio="xMidYMid meet">
<metadata>
Created by potrace 1.11, written by Peter Selinger 2001-2013
</metadata>
<g transform="translate(0.000000,161.000000) scale(0.100000,-0.100000)"
fill="#000000" stroke="none">
<path d="M757 1604 c-1 -1 -23 -4 -48 -6 -129 -13 -244 -97 -289 -213 -22 -59
-23 -69 -25 -440 -2 -463 5 -503 98 -596 49 -48 98 -75 167 -90 27 -6 51 -14
51 -17 10 -43 6 -72 -9 -73 -10 0 -82 -1 -162 -1 -80 0 -150 -4 -156 -9 -8 -6
-12 -113 -5 -152 0 -4 191 -6 424 -5 l422 3 0 80 0 80 -155 2 c-85 1 -162 2
-171 2 -13 1 -15 8 -10 38 6 36 9 38 71 56 104 31 179 97 230 202 23 47 28
814 6 889 -32 110 -122 200 -230 231 -40 11 -201 26 -209 19z m133 -180 c62
-14 129 -99 130 -164 0 -25 -1 -25 -83 -25 l-82 0 -3 -83 -3 -82 28 -1 c15 -1
54 -1 86 -1 57 1 57 1 57 -29 0 -32 5 -30 -105 -33 l-60 -1 -3 -82 c-2 -62 0
-83 10 -84 7 0 46 0 86 0 l72 0 0 -30 c0 -16 -5 -29 -12 -30 -7 0 -44 -1 -83
-2 l-70 -2 -3 -82 -3 -83 28 -1 c15 -1 54 -1 86 -1 52 1 57 -1 57 -21 0 -24
-31 -93 -52 -117 -16 -17 -53 -40 -67 -40 -6 0 -11 28 -13 63 l-3 62 -74 3
c-41 2 -78 -1 -84 -7 -5 -5 -10 -33 -10 -61 0 -28 -3 -53 -8 -56 -31 -19 -109
72 -122 143 l-6 32 91 3 91 3 0 65 c-1 36 -2 73 -2 82 -1 14 -13 17 -80 16
-87 -1 -101 4 -96 30 2 9 4 20 4 24 1 4 38 7 82 7 45 0 85 4 88 9 5 8 6 120 2
153 -1 3 -37 6 -81 6 -44 0 -82 2 -85 5 -3 3 -7 15 -10 27 -5 26 16 32 108 28
74 -2 69 -8 69 78 0 103 9 94 -88 94 -48 0 -88 2 -90 3 -2 2 2 24 8 48 11 44
54 101 93 123 42 23 133 28 205 11z"/>
</g>
</svg>
