<?xml version="1.0" standalone="no"?>
<!DOCTYPE svg PUBLIC "-//W3C//DTD SVG 20010904//EN"
 "http://www.w3.org/TR/2001/REC-SVG-20010904/DTD/svg10.dtd">
<svg version="1.0" xmlns="http://www.w3.org/2000/svg"
 width="161.000000pt" height="161.000000pt" viewBox="0 0 161.000000 161.000000"
 preserveAspectRatio="xMidYMid meet">
<metadata>
Created by potrace 1.11, written by Peter Selinger 2001-2013
</metadata>
<g transform="translate(0.000000,161.000000) scale(0.100000,-0.100000)"
fill="#000000" stroke="none">
<path d="M645 1587 c-112 -37 -189 -107 -225 -203 -19 -52 -20 -77 -20 -459 0
-347 2 -411 16 -452 35 -103 120 -181 230 -210 65 -16 74 -24 74 -65 l0 -28
-170 0 -170 0 0 -85 0 -85 423 2 422 3 0 80 0 80 -168 3 -168 2 3 38 c3 31 8
38 33 46 139 41 199 85 247 183 l33 68 0 420 0 420 -26 55 c-37 80 -81 125
-157 162 -63 31 -71 33 -201 35 -92 2 -149 -1 -176 -10z m265 -169 c55 -21
109 -100 110 -160 l0 -28 -85 0 -85 0 0 -80 0 -80 85 0 85 0 0 -30 0 -30 -85
0 -85 0 0 -85 0 -85 85 0 85 0 0 -30 0 -30 -85 0 -85 0 0 -85 0 -85 85 0 c82
0 85 -1 85 -22 -1 -37 -35 -102 -69 -131 -50 -42 -60 -36 -63 36 l-3 62 -80 0
-80 0 -5 -60 c-5 -57 -6 -60 -29 -57 -45 5 -90 66 -104 140 l-6 32 89 0 90 0
0 85 0 85 -91 0 -90 0 3 28 c3 27 3 27 91 30 l87 3 0 84 0 85 -91 0 -90 0 3
28 c3 27 3 27 91 30 l87 3 0 84 0 85 -90 0 -89 0 6 33 c9 48 28 81 68 115 34
30 47 36 105 46 32 5 118 -4 150 -16z"/>
</g>
</svg>
